<?xml version="1.0" encoding="UTF-8"?>
<!DOCTYPE svg PUBLIC "-//W3C//DTD SVG 1.1//EN"
    "http://www.w3.org/Graphics/SVG/1.1/DTD/svg11.dtd">
<svg xmlns="http://www.w3.org/2000/svg" height="143.5125" stroke-opacity="1" viewBox="0 0 143 144" font-size="1" width="142.8571" xmlns:xlink="http://www.w3.org/1999/xlink" stroke="rgb(0,0,0)" version="1.1">
  <defs>
  </defs>
  <g stroke-linejoin="miter" stroke-opacity="1.0" fill-opacity="1.0" stroke="rgb(0,0,0)" stroke-width="0.0" fill="rgb(112,128,144)" stroke-linecap="butt" stroke-miterlimit="10.0">
    <path d="M 142.8571,143.5125 l -0.0000,-143.5125 h -142.8571 l -0.0000,143.5125 Z"/>
  </g>
  <g stroke-linejoin="miter" stroke-opacity="1.0" fill-opacity="1.0" stroke="rgb(0,0,0)" stroke-width="0.0" fill="rgb(169,169,169)" stroke-linecap="butt" stroke-miterlimit="10.0">
    <path d="M 117.9554,38.6632 l -0.0000,-13.1062 h -13.1062 l -0.0000,13.1062 Z"/>
  </g>
  <g stroke-linejoin="miter" stroke-opacity="1.0" fill-opacity="1.0" stroke="rgb(0,0,0)" stroke-width="0.0" fill="rgb(255,255,224)" stroke-linecap="butt" stroke-miterlimit="10.0">
    <path d="M 117.6278,38.3355 l -0.0000,-12.4509 h -12.4509 l -0.0000,12.4509 Z"/>
  </g>
  <g stroke-linejoin="miter" stroke-opacity="1.0" fill-opacity="1.0" stroke="rgb(0,0,0)" stroke-width="0.0" fill="rgb(169,169,169)" stroke-linecap="butt" stroke-miterlimit="10.0">
    <path d="M 117.9554,51.7693 l -0.0000,-13.1062 h -13.1062 l -0.0000,13.1062 Z"/>
  </g>
  <g stroke-linejoin="miter" stroke-opacity="1.0" fill-opacity="1.0" stroke="rgb(0,0,0)" stroke-width="0.0" fill="rgb(255,255,224)" stroke-linecap="butt" stroke-miterlimit="10.0">
    <path d="M 117.6278,51.4417 l -0.0000,-12.4509 h -12.4509 l -0.0000,12.4509 Z"/>
  </g>
  <g stroke-linejoin="miter" stroke-opacity="1.0" fill-opacity="1.0" stroke="rgb(0,0,0)" stroke-width="0.0" fill="rgb(169,169,169)" stroke-linecap="butt" stroke-miterlimit="10.0">
    <path d="M 117.9554,64.8755 l -0.0000,-13.1062 h -13.1062 l -0.0000,13.1062 Z"/>
  </g>
  <g stroke-linejoin="miter" stroke-opacity="1.0" fill-opacity="1.0" stroke="rgb(0,0,0)" stroke-width="0.0" fill="rgb(255,255,224)" stroke-linecap="butt" stroke-miterlimit="10.0">
    <path d="M 117.6278,64.5478 l -0.0000,-12.4509 h -12.4509 l -0.0000,12.4509 Z"/>
  </g>
  <g stroke-linejoin="miter" stroke-opacity="1.0" fill-opacity="1.0" stroke="rgb(0,0,0)" stroke-width="0.0" fill="rgb(169,169,169)" stroke-linecap="butt" stroke-miterlimit="10.0">
    <path d="M 117.9554,77.9817 l -0.0000,-13.1062 h -13.1062 l -0.0000,13.1062 Z"/>
  </g>
  <g stroke-linejoin="miter" stroke-opacity="1.0" fill-opacity="1.0" stroke="rgb(0,0,0)" stroke-width="0.0" fill="rgb(255,255,224)" stroke-linecap="butt" stroke-miterlimit="10.0">
    <path d="M 117.6278,77.6540 l -0.0000,-12.4509 h -12.4509 l -0.0000,12.4509 Z"/>
  </g>
  <g stroke-linejoin="miter" stroke-opacity="1.0" fill-opacity="1.0" stroke="rgb(0,0,0)" stroke-width="0.0" fill="rgb(169,169,169)" stroke-linecap="butt" stroke-miterlimit="10.0">
    <path d="M 117.9554,91.0878 l -0.0000,-13.1062 h -13.1062 l -0.0000,13.1062 Z"/>
  </g>
  <g stroke-linejoin="miter" stroke-opacity="1.0" fill-opacity="1.0" stroke="rgb(0,0,0)" stroke-width="0.0" fill="rgb(255,255,224)" stroke-linecap="butt" stroke-miterlimit="10.0">
    <path d="M 117.6278,90.7602 l -0.0000,-12.4509 h -12.4509 l -0.0000,12.4509 Z"/>
  </g>
  <g stroke-linejoin="miter" stroke-opacity="1.0" fill-opacity="1.0" stroke="rgb(0,0,0)" stroke-width="0.0" fill="rgb(169,169,169)" stroke-linecap="butt" stroke-miterlimit="10.0">
    <path d="M 117.9554,104.1940 l -0.0000,-13.1062 h -13.1062 l -0.0000,13.1062 Z"/>
  </g>
  <g stroke-linejoin="miter" stroke-opacity="1.0" fill-opacity="1.0" stroke="rgb(0,0,0)" stroke-width="0.0" fill="rgb(255,255,224)" stroke-linecap="butt" stroke-miterlimit="10.0">
    <path d="M 117.6278,103.8663 l -0.0000,-12.4509 h -12.4509 l -0.0000,12.4509 Z"/>
  </g>
  <g stroke-linejoin="miter" stroke-opacity="1.0" fill-opacity="1.0" stroke="rgb(0,0,0)" stroke-width="0.0" fill="rgb(169,169,169)" stroke-linecap="butt" stroke-miterlimit="10.0">
    <path d="M 117.9554,117.3001 l -0.0000,-13.1062 h -13.1062 l -0.0000,13.1062 Z"/>
  </g>
  <g stroke-linejoin="miter" stroke-opacity="1.0" fill-opacity="1.0" stroke="rgb(0,0,0)" stroke-width="0.0" fill="rgb(255,255,224)" stroke-linecap="butt" stroke-miterlimit="10.0">
    <path d="M 117.6278,116.9725 l -0.0000,-12.4509 h -12.4509 l -0.0000,12.4509 Z"/>
  </g>
  <g stroke-linejoin="miter" stroke-opacity="1.0" fill-opacity="1.0" stroke="rgb(0,0,0)" stroke-width="0.0" fill="rgb(169,169,169)" stroke-linecap="butt" stroke-miterlimit="10.0">
    <path d="M 117.9554,130.4063 l -0.0000,-13.1062 h -13.1062 l -0.0000,13.1062 Z"/>
  </g>
  <g stroke-linejoin="miter" stroke-opacity="1.0" fill-opacity="1.0" stroke="rgb(0,0,0)" stroke-width="0.0" fill="rgb(255,255,224)" stroke-linecap="butt" stroke-miterlimit="10.0">
    <path d="M 117.6278,130.0786 l -0.0000,-12.4509 h -12.4509 l -0.0000,12.4509 Z"/>
  </g>
  <g stroke-linejoin="miter" stroke-opacity="1.0" fill-opacity="1.0" stroke="rgb(0,0,0)" stroke-width="0.0" fill="rgb(169,169,169)" stroke-linecap="butt" stroke-miterlimit="10.0">
    <path d="M 117.9554,143.5125 l -0.0000,-13.1062 h -13.1062 l -0.0000,13.1062 Z"/>
  </g>
  <g stroke-linejoin="miter" stroke-opacity="1.0" fill-opacity="1.0" stroke="rgb(0,0,0)" stroke-width="0.0" fill="rgb(255,255,224)" stroke-linecap="butt" stroke-miterlimit="10.0">
    <path d="M 117.6278,143.1848 l -0.0000,-12.4509 h -12.4509 l -0.0000,12.4509 Z"/>
  </g>
  <g stroke-linejoin="miter" stroke-opacity="1.0" fill-opacity="1.0" stroke="rgb(0,0,0)" stroke-width="0.0" fill="rgb(169,169,169)" stroke-linecap="butt" stroke-miterlimit="10.0">
    <path d="M 104.8493,38.6632 l -0.0000,-13.1062 h -13.1062 l -0.0000,13.1062 Z"/>
  </g>
  <g stroke-linejoin="miter" stroke-opacity="1.0" fill-opacity="1.0" stroke="rgb(0,0,0)" stroke-width="0.0" fill="rgb(255,255,224)" stroke-linecap="butt" stroke-miterlimit="10.0">
    <path d="M 104.5216,38.3355 l -0.0000,-12.4509 h -12.4509 l -0.0000,12.4509 Z"/>
  </g>
  <g stroke-linejoin="miter" stroke-opacity="1.0" fill-opacity="1.0" stroke="rgb(0,0,0)" stroke-width="0.0" fill="rgb(169,169,169)" stroke-linecap="butt" stroke-miterlimit="10.0">
    <path d="M 104.8493,64.8755 l -0.0000,-13.1062 h -13.1062 l -0.0000,13.1062 Z"/>
  </g>
  <g stroke-linejoin="miter" stroke-opacity="1.0" fill-opacity="1.0" stroke="rgb(0,0,0)" stroke-width="0.0" fill="rgb(255,255,224)" stroke-linecap="butt" stroke-miterlimit="10.0">
    <path d="M 104.5216,64.5478 l -0.0000,-12.4509 h -12.4509 l -0.0000,12.4509 Z"/>
  </g>
  <g stroke-linejoin="miter" stroke-opacity="1.0" fill-opacity="1.0" stroke="rgb(0,0,0)" stroke-width="0.0" fill="rgb(169,169,169)" stroke-linecap="butt" stroke-miterlimit="10.0">
    <path d="M 104.8493,77.9817 l -0.0000,-13.1062 h -13.1062 l -0.0000,13.1062 Z"/>
  </g>
  <g stroke-linejoin="miter" stroke-opacity="1.0" fill-opacity="1.0" stroke="rgb(0,0,0)" stroke-width="0.0" fill="rgb(255,255,224)" stroke-linecap="butt" stroke-miterlimit="10.0">
    <path d="M 104.5216,77.6540 l -0.0000,-12.4509 h -12.4509 l -0.0000,12.4509 Z"/>
  </g>
  <g stroke-linejoin="miter" stroke-opacity="1.0" fill-opacity="1.0" stroke="rgb(0,0,0)" stroke-width="0.0" fill="rgb(169,169,169)" stroke-linecap="butt" stroke-miterlimit="10.0">
    <path d="M 104.8493,104.1940 l -0.0000,-13.1062 h -13.1062 l -0.0000,13.1062 Z"/>
  </g>
  <g stroke-linejoin="miter" stroke-opacity="1.0" fill-opacity="1.0" stroke="rgb(0,0,0)" stroke-width="0.0" fill="rgb(255,255,224)" stroke-linecap="butt" stroke-miterlimit="10.0">
    <path d="M 104.5216,103.8663 l -0.0000,-12.4509 h -12.4509 l -0.0000,12.4509 Z"/>
  </g>
  <g stroke-linejoin="miter" stroke-opacity="1.0" fill-opacity="1.0" stroke="rgb(0,0,0)" stroke-width="0.0" fill="rgb(169,169,169)" stroke-linecap="butt" stroke-miterlimit="10.0">
    <path d="M 104.8493,117.3001 l -0.0000,-13.1062 h -13.1062 l -0.0000,13.1062 Z"/>
  </g>
  <g stroke-linejoin="miter" stroke-opacity="1.0" fill-opacity="1.0" stroke="rgb(0,0,0)" stroke-width="0.0" fill="rgb(255,255,224)" stroke-linecap="butt" stroke-miterlimit="10.0">
    <path d="M 104.5216,116.9725 l -0.0000,-12.4509 h -12.4509 l -0.0000,12.4509 Z"/>
  </g>
  <g stroke-linejoin="miter" stroke-opacity="1.0" fill-opacity="1.0" stroke="rgb(0,0,0)" stroke-width="0.0" fill="rgb(169,169,169)" stroke-linecap="butt" stroke-miterlimit="10.0">
    <path d="M 104.8493,143.5125 l -0.0000,-13.1062 h -13.1062 l -0.0000,13.1062 Z"/>
  </g>
  <g stroke-linejoin="miter" stroke-opacity="1.0" fill-opacity="1.0" stroke="rgb(0,0,0)" stroke-width="0.0" fill="rgb(255,255,224)" stroke-linecap="butt" stroke-miterlimit="10.0">
    <path d="M 104.5216,143.1848 l -0.0000,-12.4509 h -12.4509 l -0.0000,12.4509 Z"/>
  </g>
  <g stroke-linejoin="miter" stroke-opacity="1.0" fill-opacity="1.0" stroke="rgb(0,0,0)" stroke-width="0.0" fill="rgb(169,169,169)" stroke-linecap="butt" stroke-miterlimit="10.0">
    <path d="M 91.7431,38.6632 l -0.0000,-13.1062 h -13.1062 l -0.0000,13.1062 Z"/>
  </g>
  <g stroke-linejoin="miter" stroke-opacity="1.0" fill-opacity="1.0" stroke="rgb(0,0,0)" stroke-width="0.0" fill="rgb(255,255,224)" stroke-linecap="butt" stroke-miterlimit="10.0">
    <path d="M 91.4155,38.3355 l -0.0000,-12.4509 h -12.4509 l -0.0000,12.4509 Z"/>
  </g>
  <g stroke-linejoin="miter" stroke-opacity="1.0" fill-opacity="1.0" stroke="rgb(0,0,0)" stroke-width="0.0" fill="rgb(169,169,169)" stroke-linecap="butt" stroke-miterlimit="10.0">
    <path d="M 91.7431,51.7693 l -0.0000,-13.1062 h -13.1062 l -0.0000,13.1062 Z"/>
  </g>
  <g stroke-linejoin="miter" stroke-opacity="1.0" fill-opacity="1.0" stroke="rgb(0,0,0)" stroke-width="0.0" fill="rgb(255,255,224)" stroke-linecap="butt" stroke-miterlimit="10.0">
    <path d="M 91.4155,51.4417 l -0.0000,-12.4509 h -12.4509 l -0.0000,12.4509 Z"/>
  </g>
  <g stroke-linejoin="miter" stroke-opacity="1.0" fill-opacity="1.0" stroke="rgb(0,0,0)" stroke-width="0.0" fill="rgb(169,169,169)" stroke-linecap="butt" stroke-miterlimit="10.0">
    <path d="M 91.7431,64.8755 l -0.0000,-13.1062 h -13.1062 l -0.0000,13.1062 Z"/>
  </g>
  <g stroke-linejoin="miter" stroke-opacity="1.0" fill-opacity="1.0" stroke="rgb(0,0,0)" stroke-width="0.0" fill="rgb(255,255,224)" stroke-linecap="butt" stroke-miterlimit="10.0">
    <path d="M 91.4155,64.5478 l -0.0000,-12.4509 h -12.4509 l -0.0000,12.4509 Z"/>
  </g>
  <g stroke-linejoin="miter" stroke-opacity="1.0" fill-opacity="1.0" stroke="rgb(0,0,0)" stroke-width="0.0" fill="rgb(169,169,169)" stroke-linecap="butt" stroke-miterlimit="10.0">
    <path d="M 91.7431,77.9817 l -0.0000,-13.1062 h -13.1062 l -0.0000,13.1062 Z"/>
  </g>
  <g stroke-linejoin="miter" stroke-opacity="1.0" fill-opacity="1.0" stroke="rgb(0,0,0)" stroke-width="0.0" fill="rgb(255,255,224)" stroke-linecap="butt" stroke-miterlimit="10.0">
    <path d="M 91.4155,77.6540 l -0.0000,-12.4509 h -12.4509 l -0.0000,12.4509 Z"/>
  </g>
  <g stroke-linejoin="miter" stroke-opacity="1.0" fill-opacity="1.0" stroke="rgb(0,0,0)" stroke-width="0.0" fill="rgb(169,169,169)" stroke-linecap="butt" stroke-miterlimit="10.0">
    <path d="M 91.7431,91.0878 l -0.0000,-13.1062 h -13.1062 l -0.0000,13.1062 Z"/>
  </g>
  <g stroke-linejoin="miter" stroke-opacity="1.0" fill-opacity="1.0" stroke="rgb(0,0,0)" stroke-width="0.0" fill="rgb(255,255,224)" stroke-linecap="butt" stroke-miterlimit="10.0">
    <path d="M 91.4155,90.7602 l -0.0000,-12.4509 h -12.4509 l -0.0000,12.4509 Z"/>
  </g>
  <g stroke-linejoin="miter" stroke-opacity="1.0" fill-opacity="1.0" stroke="rgb(0,0,0)" stroke-width="0.0" fill="rgb(169,169,169)" stroke-linecap="butt" stroke-miterlimit="10.0">
    <path d="M 91.7431,104.1940 l -0.0000,-13.1062 h -13.1062 l -0.0000,13.1062 Z"/>
  </g>
  <g stroke-linejoin="miter" stroke-opacity="1.0" fill-opacity="1.0" stroke="rgb(0,0,0)" stroke-width="0.0" fill="rgb(255,255,224)" stroke-linecap="butt" stroke-miterlimit="10.0">
    <path d="M 91.4155,103.8663 l -0.0000,-12.4509 h -12.4509 l -0.0000,12.4509 Z"/>
  </g>
  <g stroke-linejoin="miter" stroke-opacity="1.0" fill-opacity="1.0" stroke="rgb(0,0,0)" stroke-width="0.0" fill="rgb(169,169,169)" stroke-linecap="butt" stroke-miterlimit="10.0">
    <path d="M 91.7431,117.3001 l -0.0000,-13.1062 h -13.1062 l -0.0000,13.1062 Z"/>
  </g>
  <g stroke-linejoin="miter" stroke-opacity="1.0" fill-opacity="1.0" stroke="rgb(0,0,0)" stroke-width="0.0" fill="rgb(255,255,224)" stroke-linecap="butt" stroke-miterlimit="10.0">
    <path d="M 91.4155,116.9725 l -0.0000,-12.4509 h -12.4509 l -0.0000,12.4509 Z"/>
  </g>
  <g stroke-linejoin="miter" stroke-opacity="1.0" fill-opacity="1.0" stroke="rgb(0,0,0)" stroke-width="0.0" fill="rgb(169,169,169)" stroke-linecap="butt" stroke-miterlimit="10.0">
    <path d="M 91.7431,130.4063 l -0.0000,-13.1062 h -13.1062 l -0.0000,13.1062 Z"/>
  </g>
  <g stroke-linejoin="miter" stroke-opacity="1.0" fill-opacity="1.0" stroke="rgb(0,0,0)" stroke-width="0.0" fill="rgb(255,255,224)" stroke-linecap="butt" stroke-miterlimit="10.0">
    <path d="M 91.4155,130.0786 l -0.0000,-12.4509 h -12.4509 l -0.0000,12.4509 Z"/>
  </g>
  <g stroke-linejoin="miter" stroke-opacity="1.0" fill-opacity="1.0" stroke="rgb(0,0,0)" stroke-width="0.0" fill="rgb(169,169,169)" stroke-linecap="butt" stroke-miterlimit="10.0">
    <path d="M 91.7431,143.5125 l -0.0000,-13.1062 h -13.1062 l -0.0000,13.1062 Z"/>
  </g>
  <g stroke-linejoin="miter" stroke-opacity="1.0" fill-opacity="1.0" stroke="rgb(0,0,0)" stroke-width="0.0" fill="rgb(255,255,224)" stroke-linecap="butt" stroke-miterlimit="10.0">
    <path d="M 91.4155,143.1848 l -0.0000,-12.4509 h -12.4509 l -0.0000,12.4509 Z"/>
  </g>
  <g stroke-linejoin="miter" stroke-opacity="1.0" fill-opacity="1.0" stroke="rgb(0,0,0)" stroke-width="0.0" fill="rgb(169,169,169)" stroke-linecap="butt" stroke-miterlimit="10.0">
    <path d="M 78.6370,38.6632 l -0.0000,-13.1062 h -13.1062 l -0.0000,13.1062 Z"/>
  </g>
  <g stroke-linejoin="miter" stroke-opacity="1.0" fill-opacity="1.0" stroke="rgb(0,0,0)" stroke-width="0.0" fill="rgb(255,255,224)" stroke-linecap="butt" stroke-miterlimit="10.0">
    <path d="M 78.3093,38.3355 l -0.0000,-12.4509 h -12.4509 l -0.0000,12.4509 Z"/>
  </g>
  <g stroke-linejoin="miter" stroke-opacity="1.0" fill-opacity="1.0" stroke="rgb(0,0,0)" stroke-width="0.0" fill="rgb(169,169,169)" stroke-linecap="butt" stroke-miterlimit="10.0">
    <path d="M 78.6370,51.7693 l -0.0000,-13.1062 h -13.1062 l -0.0000,13.1062 Z"/>
  </g>
  <g stroke-linejoin="miter" stroke-opacity="1.0" fill-opacity="1.0" stroke="rgb(0,0,0)" stroke-width="0.0" fill="rgb(255,255,224)" stroke-linecap="butt" stroke-miterlimit="10.0">
    <path d="M 78.3093,51.4417 l -0.0000,-12.4509 h -12.4509 l -0.0000,12.4509 Z"/>
  </g>
  <g stroke-linejoin="miter" stroke-opacity="1.0" fill-opacity="1.0" stroke="rgb(0,0,0)" stroke-width="0.0" fill="rgb(169,169,169)" stroke-linecap="butt" stroke-miterlimit="10.0">
    <path d="M 78.6370,64.8755 l -0.0000,-13.1062 h -13.1062 l -0.0000,13.1062 Z"/>
  </g>
  <g stroke-linejoin="miter" stroke-opacity="1.0" fill-opacity="1.0" stroke="rgb(0,0,0)" stroke-width="0.0" fill="rgb(255,255,224)" stroke-linecap="butt" stroke-miterlimit="10.0">
    <path d="M 78.3093,64.5478 l -0.0000,-12.4509 h -12.4509 l -0.0000,12.4509 Z"/>
  </g>
  <g stroke-linejoin="miter" stroke-opacity="1.0" fill-opacity="1.0" stroke="rgb(0,0,0)" stroke-width="0.0" fill="rgb(169,169,169)" stroke-linecap="butt" stroke-miterlimit="10.0">
    <path d="M 78.6370,117.3001 l -0.0000,-13.1062 h -13.1062 l -0.0000,13.1062 Z"/>
  </g>
  <g stroke-linejoin="miter" stroke-opacity="1.0" fill-opacity="1.0" stroke="rgb(0,0,0)" stroke-width="0.0" fill="rgb(255,255,224)" stroke-linecap="butt" stroke-miterlimit="10.0">
    <path d="M 78.3093,116.9725 l -0.0000,-12.4509 h -12.4509 l -0.0000,12.4509 Z"/>
  </g>
  <g stroke-linejoin="miter" stroke-opacity="1.0" fill-opacity="1.0" stroke="rgb(0,0,0)" stroke-width="0.0" fill="rgb(169,169,169)" stroke-linecap="butt" stroke-miterlimit="10.0">
    <path d="M 78.6370,130.4063 l -0.0000,-13.1062 h -13.1062 l -0.0000,13.1062 Z"/>
  </g>
  <g stroke-linejoin="miter" stroke-opacity="1.0" fill-opacity="1.0" stroke="rgb(0,0,0)" stroke-width="0.0" fill="rgb(255,255,224)" stroke-linecap="butt" stroke-miterlimit="10.0">
    <path d="M 78.3093,130.0786 l -0.0000,-12.4509 h -12.4509 l -0.0000,12.4509 Z"/>
  </g>
  <g stroke-linejoin="miter" stroke-opacity="1.0" fill-opacity="1.0" stroke="rgb(0,0,0)" stroke-width="0.0" fill="rgb(169,169,169)" stroke-linecap="butt" stroke-miterlimit="10.0">
    <path d="M 78.6370,143.5125 l -0.0000,-13.1062 h -13.1062 l -0.0000,13.1062 Z"/>
  </g>
  <g stroke-linejoin="miter" stroke-opacity="1.0" fill-opacity="1.0" stroke="rgb(0,0,0)" stroke-width="0.0" fill="rgb(255,255,224)" stroke-linecap="butt" stroke-miterlimit="10.0">
    <path d="M 78.3093,143.1848 l -0.0000,-12.4509 h -12.4509 l -0.0000,12.4509 Z"/>
  </g>
  <g stroke-linejoin="miter" stroke-opacity="1.0" fill-opacity="1.0" stroke="rgb(0,0,0)" stroke-width="0.0" fill="rgb(169,169,169)" stroke-linecap="butt" stroke-miterlimit="10.0">
    <path d="M 65.5308,38.6632 l -0.0000,-13.1062 h -13.1062 l -0.0000,13.1062 Z"/>
  </g>
  <g stroke-linejoin="miter" stroke-opacity="1.0" fill-opacity="1.0" stroke="rgb(0,0,0)" stroke-width="0.0" fill="rgb(255,255,224)" stroke-linecap="butt" stroke-miterlimit="10.0">
    <path d="M 65.2031,38.3355 l -0.0000,-12.4509 h -12.4509 l -0.0000,12.4509 Z"/>
  </g>
  <g stroke-linejoin="miter" stroke-opacity="1.0" fill-opacity="1.0" stroke="rgb(0,0,0)" stroke-width="0.0" fill="rgb(169,169,169)" stroke-linecap="butt" stroke-miterlimit="10.0">
    <path d="M 65.5308,64.8755 l -0.0000,-13.1062 h -13.1062 l -0.0000,13.1062 Z"/>
  </g>
  <g stroke-linejoin="miter" stroke-opacity="1.0" fill-opacity="1.0" stroke="rgb(0,0,0)" stroke-width="0.0" fill="rgb(255,255,224)" stroke-linecap="butt" stroke-miterlimit="10.0">
    <path d="M 65.2031,64.5478 l -0.0000,-12.4509 h -12.4509 l -0.0000,12.4509 Z"/>
  </g>
  <g stroke-linejoin="miter" stroke-opacity="1.0" fill-opacity="1.0" stroke="rgb(0,0,0)" stroke-width="0.0" fill="rgb(169,169,169)" stroke-linecap="butt" stroke-miterlimit="10.0">
    <path d="M 65.5308,117.3001 l -0.0000,-13.1062 h -13.1062 l -0.0000,13.1062 Z"/>
  </g>
  <g stroke-linejoin="miter" stroke-opacity="1.0" fill-opacity="1.0" stroke="rgb(0,0,0)" stroke-width="0.0" fill="rgb(255,255,224)" stroke-linecap="butt" stroke-miterlimit="10.0">
    <path d="M 65.2031,116.9725 l -0.0000,-12.4509 h -12.4509 l -0.0000,12.4509 Z"/>
  </g>
  <g stroke-linejoin="miter" stroke-opacity="1.0" fill-opacity="1.0" stroke="rgb(0,0,0)" stroke-width="0.0" fill="rgb(169,169,169)" stroke-linecap="butt" stroke-miterlimit="10.0">
    <path d="M 65.5308,143.5125 l -0.0000,-13.1062 h -13.1062 l -0.0000,13.1062 Z"/>
  </g>
  <g stroke-linejoin="miter" stroke-opacity="1.0" fill-opacity="1.0" stroke="rgb(0,0,0)" stroke-width="0.0" fill="rgb(255,255,224)" stroke-linecap="butt" stroke-miterlimit="10.0">
    <path d="M 65.2031,143.1848 l -0.0000,-12.4509 h -12.4509 l -0.0000,12.4509 Z"/>
  </g>
  <g stroke-linejoin="miter" stroke-opacity="1.0" fill-opacity="1.0" stroke="rgb(0,0,0)" stroke-width="0.0" fill="rgb(169,169,169)" stroke-linecap="butt" stroke-miterlimit="10.0">
    <path d="M 52.4246,38.6632 l -0.0000,-13.1062 h -13.1062 l -0.0000,13.1062 Z"/>
  </g>
  <g stroke-linejoin="miter" stroke-opacity="1.0" fill-opacity="1.0" stroke="rgb(0,0,0)" stroke-width="0.0" fill="rgb(255,255,224)" stroke-linecap="butt" stroke-miterlimit="10.0">
    <path d="M 52.0970,38.3355 l -0.0000,-12.4509 h -12.4509 l -0.0000,12.4509 Z"/>
  </g>
  <g stroke-linejoin="miter" stroke-opacity="1.0" fill-opacity="1.0" stroke="rgb(0,0,0)" stroke-width="0.0" fill="rgb(169,169,169)" stroke-linecap="butt" stroke-miterlimit="10.0">
    <path d="M 52.4246,51.7693 l -0.0000,-13.1062 h -13.1062 l -0.0000,13.1062 Z"/>
  </g>
  <g stroke-linejoin="miter" stroke-opacity="1.0" fill-opacity="1.0" stroke="rgb(0,0,0)" stroke-width="0.0" fill="rgb(255,255,224)" stroke-linecap="butt" stroke-miterlimit="10.0">
    <path d="M 52.0970,51.4417 l -0.0000,-12.4509 h -12.4509 l -0.0000,12.4509 Z"/>
  </g>
  <g stroke-linejoin="miter" stroke-opacity="1.0" fill-opacity="1.0" stroke="rgb(0,0,0)" stroke-width="0.0" fill="rgb(169,169,169)" stroke-linecap="butt" stroke-miterlimit="10.0">
    <path d="M 52.4246,64.8755 l -0.0000,-13.1062 h -13.1062 l -0.0000,13.1062 Z"/>
  </g>
  <g stroke-linejoin="miter" stroke-opacity="1.0" fill-opacity="1.0" stroke="rgb(0,0,0)" stroke-width="0.0" fill="rgb(255,255,224)" stroke-linecap="butt" stroke-miterlimit="10.0">
    <path d="M 52.0970,64.5478 l -0.0000,-12.4509 h -12.4509 l -0.0000,12.4509 Z"/>
  </g>
  <g stroke-linejoin="miter" stroke-opacity="1.0" fill-opacity="1.0" stroke="rgb(0,0,0)" stroke-width="0.0" fill="rgb(169,169,169)" stroke-linecap="butt" stroke-miterlimit="10.0">
    <path d="M 52.4246,117.3001 l -0.0000,-13.1062 h -13.1062 l -0.0000,13.1062 Z"/>
  </g>
  <g stroke-linejoin="miter" stroke-opacity="1.0" fill-opacity="1.0" stroke="rgb(0,0,0)" stroke-width="0.0" fill="rgb(255,255,224)" stroke-linecap="butt" stroke-miterlimit="10.0">
    <path d="M 52.0970,116.9725 l -0.0000,-12.4509 h -12.4509 l -0.0000,12.4509 Z"/>
  </g>
  <g stroke-linejoin="miter" stroke-opacity="1.0" fill-opacity="1.0" stroke="rgb(0,0,0)" stroke-width="0.0" fill="rgb(169,169,169)" stroke-linecap="butt" stroke-miterlimit="10.0">
    <path d="M 52.4246,130.4063 l -0.0000,-13.1062 h -13.1062 l -0.0000,13.1062 Z"/>
  </g>
  <g stroke-linejoin="miter" stroke-opacity="1.0" fill-opacity="1.0" stroke="rgb(0,0,0)" stroke-width="0.0" fill="rgb(255,255,224)" stroke-linecap="butt" stroke-miterlimit="10.0">
    <path d="M 52.0970,130.0786 l -0.0000,-12.4509 h -12.4509 l -0.0000,12.4509 Z"/>
  </g>
  <g stroke-linejoin="miter" stroke-opacity="1.0" fill-opacity="1.0" stroke="rgb(0,0,0)" stroke-width="0.0" fill="rgb(169,169,169)" stroke-linecap="butt" stroke-miterlimit="10.0">
    <path d="M 52.4246,143.5125 l -0.0000,-13.1062 h -13.1062 l -0.0000,13.1062 Z"/>
  </g>
  <g stroke-linejoin="miter" stroke-opacity="1.0" fill-opacity="1.0" stroke="rgb(0,0,0)" stroke-width="0.0" fill="rgb(255,255,224)" stroke-linecap="butt" stroke-miterlimit="10.0">
    <path d="M 52.0970,143.1848 l -0.0000,-12.4509 h -12.4509 l -0.0000,12.4509 Z"/>
  </g>
  <g stroke-linejoin="miter" stroke-opacity="1.0" fill-opacity="1.0" stroke="rgb(0,0,0)" stroke-width="0.0" fill="rgb(169,169,169)" stroke-linecap="butt" stroke-miterlimit="10.0">
    <path d="M 39.3185,38.6632 l -0.0000,-13.1062 h -13.1062 l -0.0000,13.1062 Z"/>
  </g>
  <g stroke-linejoin="miter" stroke-opacity="1.0" fill-opacity="1.0" stroke="rgb(0,0,0)" stroke-width="0.0" fill="rgb(255,255,224)" stroke-linecap="butt" stroke-miterlimit="10.0">
    <path d="M 38.9908,38.3355 l -0.0000,-12.4509 h -12.4509 l -0.0000,12.4509 Z"/>
  </g>
  <g stroke-linejoin="miter" stroke-opacity="1.0" fill-opacity="1.0" stroke="rgb(0,0,0)" stroke-width="0.0" fill="rgb(169,169,169)" stroke-linecap="butt" stroke-miterlimit="10.0">
    <path d="M 39.3185,51.7693 l -0.0000,-13.1062 h -13.1062 l -0.0000,13.1062 Z"/>
  </g>
  <g stroke-linejoin="miter" stroke-opacity="1.0" fill-opacity="1.0" stroke="rgb(0,0,0)" stroke-width="0.0" fill="rgb(255,255,224)" stroke-linecap="butt" stroke-miterlimit="10.0">
    <path d="M 38.9908,51.4417 l -0.0000,-12.4509 h -12.4509 l -0.0000,12.4509 Z"/>
  </g>
  <g stroke-linejoin="miter" stroke-opacity="1.0" fill-opacity="1.0" stroke="rgb(0,0,0)" stroke-width="0.0" fill="rgb(169,169,169)" stroke-linecap="butt" stroke-miterlimit="10.0">
    <path d="M 39.3185,64.8755 l -0.0000,-13.1062 h -13.1062 l -0.0000,13.1062 Z"/>
  </g>
  <g stroke-linejoin="miter" stroke-opacity="1.0" fill-opacity="1.0" stroke="rgb(0,0,0)" stroke-width="0.0" fill="rgb(255,255,224)" stroke-linecap="butt" stroke-miterlimit="10.0">
    <path d="M 38.9908,64.5478 l -0.0000,-12.4509 h -12.4509 l -0.0000,12.4509 Z"/>
  </g>
  <g stroke-linejoin="miter" stroke-opacity="1.0" fill-opacity="1.0" stroke="rgb(0,0,0)" stroke-width="0.0" fill="rgb(169,169,169)" stroke-linecap="butt" stroke-miterlimit="10.0">
    <path d="M 39.3185,77.9817 l -0.0000,-13.1062 h -13.1062 l -0.0000,13.1062 Z"/>
  </g>
  <g stroke-linejoin="miter" stroke-opacity="1.0" fill-opacity="1.0" stroke="rgb(0,0,0)" stroke-width="0.0" fill="rgb(255,255,224)" stroke-linecap="butt" stroke-miterlimit="10.0">
    <path d="M 38.9908,77.6540 l -0.0000,-12.4509 h -12.4509 l -0.0000,12.4509 Z"/>
  </g>
  <g stroke-linejoin="miter" stroke-opacity="1.0" fill-opacity="1.0" stroke="rgb(0,0,0)" stroke-width="0.0" fill="rgb(169,169,169)" stroke-linecap="butt" stroke-miterlimit="10.0">
    <path d="M 39.3185,91.0878 l -0.0000,-13.1062 h -13.1062 l -0.0000,13.1062 Z"/>
  </g>
  <g stroke-linejoin="miter" stroke-opacity="1.0" fill-opacity="1.0" stroke="rgb(0,0,0)" stroke-width="0.0" fill="rgb(255,255,224)" stroke-linecap="butt" stroke-miterlimit="10.0">
    <path d="M 38.9908,90.7602 l -0.0000,-12.4509 h -12.4509 l -0.0000,12.4509 Z"/>
  </g>
  <g stroke-linejoin="miter" stroke-opacity="1.0" fill-opacity="1.0" stroke="rgb(0,0,0)" stroke-width="0.0" fill="rgb(169,169,169)" stroke-linecap="butt" stroke-miterlimit="10.0">
    <path d="M 39.3185,104.1940 l -0.0000,-13.1062 h -13.1062 l -0.0000,13.1062 Z"/>
  </g>
  <g stroke-linejoin="miter" stroke-opacity="1.0" fill-opacity="1.0" stroke="rgb(0,0,0)" stroke-width="0.0" fill="rgb(255,255,224)" stroke-linecap="butt" stroke-miterlimit="10.0">
    <path d="M 38.9908,103.8663 l -0.0000,-12.4509 h -12.4509 l -0.0000,12.4509 Z"/>
  </g>
  <g stroke-linejoin="miter" stroke-opacity="1.0" fill-opacity="1.0" stroke="rgb(0,0,0)" stroke-width="0.0" fill="rgb(169,169,169)" stroke-linecap="butt" stroke-miterlimit="10.0">
    <path d="M 39.3185,117.3001 l -0.0000,-13.1062 h -13.1062 l -0.0000,13.1062 Z"/>
  </g>
  <g stroke-linejoin="miter" stroke-opacity="1.0" fill-opacity="1.0" stroke="rgb(0,0,0)" stroke-width="0.0" fill="rgb(255,255,224)" stroke-linecap="butt" stroke-miterlimit="10.0">
    <path d="M 38.9908,116.9725 l -0.0000,-12.4509 h -12.4509 l -0.0000,12.4509 Z"/>
  </g>
  <g stroke-linejoin="miter" stroke-opacity="1.0" fill-opacity="1.0" stroke="rgb(0,0,0)" stroke-width="0.0" fill="rgb(169,169,169)" stroke-linecap="butt" stroke-miterlimit="10.0">
    <path d="M 39.3185,130.4063 l -0.0000,-13.1062 h -13.1062 l -0.0000,13.1062 Z"/>
  </g>
  <g stroke-linejoin="miter" stroke-opacity="1.0" fill-opacity="1.0" stroke="rgb(0,0,0)" stroke-width="0.0" fill="rgb(255,255,224)" stroke-linecap="butt" stroke-miterlimit="10.0">
    <path d="M 38.9908,130.0786 l -0.0000,-12.4509 h -12.4509 l -0.0000,12.4509 Z"/>
  </g>
  <g stroke-linejoin="miter" stroke-opacity="1.0" fill-opacity="1.0" stroke="rgb(0,0,0)" stroke-width="0.0" fill="rgb(169,169,169)" stroke-linecap="butt" stroke-miterlimit="10.0">
    <path d="M 39.3185,143.5125 l -0.0000,-13.1062 h -13.1062 l -0.0000,13.1062 Z"/>
  </g>
  <g stroke-linejoin="miter" stroke-opacity="1.0" fill-opacity="1.0" stroke="rgb(0,0,0)" stroke-width="0.0" fill="rgb(255,255,224)" stroke-linecap="butt" stroke-miterlimit="10.0">
    <path d="M 38.9908,143.1848 l -0.0000,-12.4509 h -12.4509 l -0.0000,12.4509 Z"/>
  </g>
  <g stroke-linejoin="miter" stroke-opacity="1.0" fill-opacity="1.0" stroke="rgb(0,0,0)" stroke-width="0.0" fill="rgb(169,169,169)" stroke-linecap="butt" stroke-miterlimit="10.0">
    <path d="M 26.2123,38.6632 l -0.0000,-13.1062 h -13.1062 l -0.0000,13.1062 Z"/>
  </g>
  <g stroke-linejoin="miter" stroke-opacity="1.0" fill-opacity="1.0" stroke="rgb(0,0,0)" stroke-width="0.0" fill="rgb(255,255,224)" stroke-linecap="butt" stroke-miterlimit="10.0">
    <path d="M 25.8847,38.3355 l -0.0000,-12.4509 h -12.4509 l -0.0000,12.4509 Z"/>
  </g>
  <g stroke-linejoin="miter" stroke-opacity="1.0" fill-opacity="1.0" stroke="rgb(0,0,0)" stroke-width="0.0" fill="rgb(169,169,169)" stroke-linecap="butt" stroke-miterlimit="10.0">
    <path d="M 26.2123,64.8755 l -0.0000,-13.1062 h -13.1062 l -0.0000,13.1062 Z"/>
  </g>
  <g stroke-linejoin="miter" stroke-opacity="1.0" fill-opacity="1.0" stroke="rgb(0,0,0)" stroke-width="0.0" fill="rgb(255,255,224)" stroke-linecap="butt" stroke-miterlimit="10.0">
    <path d="M 25.8847,64.5478 l -0.0000,-12.4509 h -12.4509 l -0.0000,12.4509 Z"/>
  </g>
  <g stroke-linejoin="miter" stroke-opacity="1.0" fill-opacity="1.0" stroke="rgb(0,0,0)" stroke-width="0.0" fill="rgb(169,169,169)" stroke-linecap="butt" stroke-miterlimit="10.0">
    <path d="M 26.2123,77.9817 l -0.0000,-13.1062 h -13.1062 l -0.0000,13.1062 Z"/>
  </g>
  <g stroke-linejoin="miter" stroke-opacity="1.0" fill-opacity="1.0" stroke="rgb(0,0,0)" stroke-width="0.0" fill="rgb(255,255,224)" stroke-linecap="butt" stroke-miterlimit="10.0">
    <path d="M 25.8847,77.6540 l -0.0000,-12.4509 h -12.4509 l -0.0000,12.4509 Z"/>
  </g>
  <g stroke-linejoin="miter" stroke-opacity="1.0" fill-opacity="1.0" stroke="rgb(0,0,0)" stroke-width="0.0" fill="rgb(169,169,169)" stroke-linecap="butt" stroke-miterlimit="10.0">
    <path d="M 26.2123,104.1940 l -0.0000,-13.1062 h -13.1062 l -0.0000,13.1062 Z"/>
  </g>
  <g stroke-linejoin="miter" stroke-opacity="1.0" fill-opacity="1.0" stroke="rgb(0,0,0)" stroke-width="0.0" fill="rgb(255,255,224)" stroke-linecap="butt" stroke-miterlimit="10.0">
    <path d="M 25.8847,103.8663 l -0.0000,-12.4509 h -12.4509 l -0.0000,12.4509 Z"/>
  </g>
  <g stroke-linejoin="miter" stroke-opacity="1.0" fill-opacity="1.0" stroke="rgb(0,0,0)" stroke-width="0.0" fill="rgb(169,169,169)" stroke-linecap="butt" stroke-miterlimit="10.0">
    <path d="M 26.2123,117.3001 l -0.0000,-13.1062 h -13.1062 l -0.0000,13.1062 Z"/>
  </g>
  <g stroke-linejoin="miter" stroke-opacity="1.0" fill-opacity="1.0" stroke="rgb(0,0,0)" stroke-width="0.0" fill="rgb(255,255,224)" stroke-linecap="butt" stroke-miterlimit="10.0">
    <path d="M 25.8847,116.9725 l -0.0000,-12.4509 h -12.4509 l -0.0000,12.4509 Z"/>
  </g>
  <g stroke-linejoin="miter" stroke-opacity="1.0" fill-opacity="1.0" stroke="rgb(0,0,0)" stroke-width="0.0" fill="rgb(169,169,169)" stroke-linecap="butt" stroke-miterlimit="10.0">
    <path d="M 26.2123,143.5125 l -0.0000,-13.1062 h -13.1062 l -0.0000,13.1062 Z"/>
  </g>
  <g stroke-linejoin="miter" stroke-opacity="1.0" fill-opacity="1.0" stroke="rgb(0,0,0)" stroke-width="0.0" fill="rgb(255,255,224)" stroke-linecap="butt" stroke-miterlimit="10.0">
    <path d="M 25.8847,143.1848 l -0.0000,-12.4509 h -12.4509 l -0.0000,12.4509 Z"/>
  </g>
  <g stroke-linejoin="miter" stroke-opacity="1.0" fill-opacity="1.0" stroke="rgb(0,0,0)" stroke-width="0.0" fill="rgb(169,169,169)" stroke-linecap="butt" stroke-miterlimit="10.0">
    <path d="M 13.1062,38.6632 l -0.0000,-13.1062 h -13.1062 l -0.0000,13.1062 Z"/>
  </g>
  <g stroke-linejoin="miter" stroke-opacity="1.0" fill-opacity="1.0" stroke="rgb(0,0,0)" stroke-width="0.0" fill="rgb(255,255,224)" stroke-linecap="butt" stroke-miterlimit="10.0">
    <path d="M 12.7785,38.3355 l -0.0000,-12.4509 h -12.4509 l -0.0000,12.4509 Z"/>
  </g>
  <g stroke-linejoin="miter" stroke-opacity="1.0" fill-opacity="1.0" stroke="rgb(0,0,0)" stroke-width="0.0" fill="rgb(169,169,169)" stroke-linecap="butt" stroke-miterlimit="10.0">
    <path d="M 13.1062,51.7693 l -0.0000,-13.1062 h -13.1062 l -0.0000,13.1062 Z"/>
  </g>
  <g stroke-linejoin="miter" stroke-opacity="1.0" fill-opacity="1.0" stroke="rgb(0,0,0)" stroke-width="0.0" fill="rgb(255,255,224)" stroke-linecap="butt" stroke-miterlimit="10.0">
    <path d="M 12.7785,51.4417 l -0.0000,-12.4509 h -12.4509 l -0.0000,12.4509 Z"/>
  </g>
  <g stroke-linejoin="miter" stroke-opacity="1.0" fill-opacity="1.0" stroke="rgb(0,0,0)" stroke-width="0.0" fill="rgb(169,169,169)" stroke-linecap="butt" stroke-miterlimit="10.0">
    <path d="M 13.1062,64.8755 l -0.0000,-13.1062 h -13.1062 l -0.0000,13.1062 Z"/>
  </g>
  <g stroke-linejoin="miter" stroke-opacity="1.0" fill-opacity="1.0" stroke="rgb(0,0,0)" stroke-width="0.0" fill="rgb(255,255,224)" stroke-linecap="butt" stroke-miterlimit="10.0">
    <path d="M 12.7785,64.5478 l -0.0000,-12.4509 h -12.4509 l -0.0000,12.4509 Z"/>
  </g>
  <g stroke-linejoin="miter" stroke-opacity="1.0" fill-opacity="1.0" stroke="rgb(0,0,0)" stroke-width="0.0" fill="rgb(169,169,169)" stroke-linecap="butt" stroke-miterlimit="10.0">
    <path d="M 13.1062,77.9817 l -0.0000,-13.1062 h -13.1062 l -0.0000,13.1062 Z"/>
  </g>
  <g stroke-linejoin="miter" stroke-opacity="1.0" fill-opacity="1.0" stroke="rgb(0,0,0)" stroke-width="0.0" fill="rgb(255,255,224)" stroke-linecap="butt" stroke-miterlimit="10.0">
    <path d="M 12.7785,77.6540 l -0.0000,-12.4509 h -12.4509 l -0.0000,12.4509 Z"/>
  </g>
  <g stroke-linejoin="miter" stroke-opacity="1.0" fill-opacity="1.0" stroke="rgb(0,0,0)" stroke-width="0.0" fill="rgb(169,169,169)" stroke-linecap="butt" stroke-miterlimit="10.0">
    <path d="M 13.1062,91.0878 l -0.0000,-13.1062 h -13.1062 l -0.0000,13.1062 Z"/>
  </g>
  <g stroke-linejoin="miter" stroke-opacity="1.0" fill-opacity="1.0" stroke="rgb(0,0,0)" stroke-width="0.0" fill="rgb(255,255,224)" stroke-linecap="butt" stroke-miterlimit="10.0">
    <path d="M 12.7785,90.7602 l -0.0000,-12.4509 h -12.4509 l -0.0000,12.4509 Z"/>
  </g>
  <g stroke-linejoin="miter" stroke-opacity="1.0" fill-opacity="1.0" stroke="rgb(0,0,0)" stroke-width="0.0" fill="rgb(169,169,169)" stroke-linecap="butt" stroke-miterlimit="10.0">
    <path d="M 13.1062,104.1940 l -0.0000,-13.1062 h -13.1062 l -0.0000,13.1062 Z"/>
  </g>
  <g stroke-linejoin="miter" stroke-opacity="1.0" fill-opacity="1.0" stroke="rgb(0,0,0)" stroke-width="0.0" fill="rgb(255,255,224)" stroke-linecap="butt" stroke-miterlimit="10.0">
    <path d="M 12.7785,103.8663 l -0.0000,-12.4509 h -12.4509 l -0.0000,12.4509 Z"/>
  </g>
  <g stroke-linejoin="miter" stroke-opacity="1.0" fill-opacity="1.0" stroke="rgb(0,0,0)" stroke-width="0.0" fill="rgb(169,169,169)" stroke-linecap="butt" stroke-miterlimit="10.0">
    <path d="M 13.1062,117.3001 l -0.0000,-13.1062 h -13.1062 l -0.0000,13.1062 Z"/>
  </g>
  <g stroke-linejoin="miter" stroke-opacity="1.0" fill-opacity="1.0" stroke="rgb(0,0,0)" stroke-width="0.0" fill="rgb(255,255,224)" stroke-linecap="butt" stroke-miterlimit="10.0">
    <path d="M 12.7785,116.9725 l -0.0000,-12.4509 h -12.4509 l -0.0000,12.4509 Z"/>
  </g>
  <g stroke-linejoin="miter" stroke-opacity="1.0" fill-opacity="1.0" stroke="rgb(0,0,0)" stroke-width="0.0" fill="rgb(169,169,169)" stroke-linecap="butt" stroke-miterlimit="10.0">
    <path d="M 13.1062,130.4063 l -0.0000,-13.1062 h -13.1062 l -0.0000,13.1062 Z"/>
  </g>
  <g stroke-linejoin="miter" stroke-opacity="1.0" fill-opacity="1.0" stroke="rgb(0,0,0)" stroke-width="0.0" fill="rgb(255,255,224)" stroke-linecap="butt" stroke-miterlimit="10.0">
    <path d="M 12.7785,130.0786 l -0.0000,-12.4509 h -12.4509 l -0.0000,12.4509 Z"/>
  </g>
  <g stroke-linejoin="miter" stroke-opacity="1.0" fill-opacity="1.0" stroke="rgb(0,0,0)" stroke-width="0.0" fill="rgb(169,169,169)" stroke-linecap="butt" stroke-miterlimit="10.0">
    <path d="M 13.1062,143.5125 l -0.0000,-13.1062 h -13.1062 l -0.0000,13.1062 Z"/>
  </g>
  <g stroke-linejoin="miter" stroke-opacity="1.0" fill-opacity="1.0" stroke="rgb(0,0,0)" stroke-width="0.0" fill="rgb(255,255,224)" stroke-linecap="butt" stroke-miterlimit="10.0">
    <path d="M 12.7785,143.1848 l -0.0000,-12.4509 h -12.4509 l -0.0000,12.4509 Z"/>
  </g>
  <g stroke-linejoin="miter" stroke-opacity="1.0" fill-opacity="1.0" stroke="rgb(0,0,0)" stroke-width="0.0" fill="rgb(139,0,0)" stroke-linecap="butt" stroke-miterlimit="10.0">
    <path d="M 142.8571,11.7955 l -0.0000,-11.7955 h -23.5911 l -0.0000,11.7955 Z"/>
  </g>
  <g stroke-linejoin="miter" stroke-opacity="1.0" fill-opacity="1.0" font-size="7.86369593709043px" stroke="rgb(0,0,0)" stroke-width="0.5727376878554945" fill="rgb(255,255,255)" stroke-linecap="butt" font-family="sansserif" stroke-miterlimit="10.0">
    <text dominant-baseline="middle" transform="matrix(1.0000,0.0000,0.0000,1.0000,132.3722,8.5190)" stroke="none" text-anchor="middle">1
    </text>
  </g>
</svg>